<svg width="24" height="24" viewBox="0 0 24 24" fill="none" xmlns="http://www.w3.org/2000/svg">
<path d="M6.57542 18.4946C9.03749 18.987 11.4435 17.4279 12 14.9795V14.9795L13.169 16.0928C13.7635 16.659 14.1 17.4442 14.1 18.2652V22.4795C14.1 22.7556 14.3239 22.9795 14.6 22.9795H15.6C15.8761 22.9795 16.1 22.7556 16.1 22.4795V17.2448C16.1 16.1175 15.638 15.0395 14.8217 14.2621V14.2621C14.3102 13.7749 14.084 13.0595 14.2225 12.3668L14.6 10.4795C15.8008 11.8651 17.5989 12.824 19.6003 12.9623C19.8757 12.9813 20.1 12.7556 20.1 12.4795V11.4795C20.1 11.2033 19.8755 10.982 19.6006 10.9562C17.9218 10.7985 16.5289 9.855 15.8 8.57949L14.8 6.97949C14.4 6.37949 13.8 5.97949 13.1 5.97949C13.0291 5.97949 12.9638 5.98508 12.9014 5.99361C12.5035 6.04803 12.1094 6.16012 11.7396 6.31659L10.1518 6.98835C8.30195 7.77097 7.1 9.58459 7.1 11.5932V12.4795C7.1 12.7556 7.32386 12.9795 7.6 12.9795H8.6C8.87614 12.9795 9.1 12.7556 9.1 12.4795V11.5108C9.1 10.3464 9.81481 9.30151 10.9 8.87949V8.87949L9.88503 14.0178C9.56252 15.6505 7.97264 16.7086 6.34202 16.3758L4.89183 16.0799C4.62051 16.0245 4.35586 16.2002 4.30156 16.4717L4.09806 17.4892C4.0439 17.76 4.21951 18.0234 4.49029 18.0776L6.57542 18.4946Z" fill="white"/>
<rect x="12" y="1" width="4" height="4" rx="1.5" fill="white"/>
</svg>
