<svg width="24" height="24" viewBox="0 0 24 24" fill="none" xmlns="http://www.w3.org/2000/svg">
<path d="M4 4L5 5" stroke="#090E1D" stroke-width="2" stroke-linejoin="round"/>
<path d="M19 19L20 20" stroke="#090E1D" stroke-width="2" stroke-linejoin="round"/>
<path d="M8 8L15 15" stroke="#090E1D" stroke-width="2" stroke-linejoin="round"/>
<path d="M4.12148 11.1212L5.00024 12L8.50024 8.5L12.0002 5L11.1215 4.12128C9.94997 2.94973 8.0505 2.94971 6.87892 4.12125L4.12151 6.87856C2.94991 8.05012 2.94989 9.94965 4.12148 11.1212Z" stroke="#090E1D" stroke-width="2"/>
<path d="M16.4145 20.5858L20.586 16.4142C21.3671 15.6332 21.3671 14.3668 20.586 13.5858L19.0002 12L12.0001 18.9999L13.586 20.5858C14.3671 21.3668 15.6334 21.3668 16.4145 20.5858Z" stroke="#090E1D" stroke-width="2"/>
</svg>
