<svg width="56" height="56" viewBox="0 0 56 56" fill="none" xmlns="http://www.w3.org/2000/svg">
<path d="M26.9 22.5263V28.1742L32.081 31.2579L32.95 29.8432L28.55 27.2237V22.5263H26.9ZM28.55 17C24.667 17 21.301 19.1221 19.497 22.2721L17 19.7632V26.9474H24.15L21.125 23.9079C22.456 21.1226 25.25 19.2105 28.55 19.2105C30.738 19.2105 32.8365 20.0839 34.3836 21.6385C35.9308 23.193 36.8 25.3015 36.8 27.5C36.8 29.6985 35.9308 31.807 34.3836 33.3615C32.8365 34.9161 30.738 35.7895 28.55 35.7895C24.953 35.7895 21.917 33.4795 20.784 30.2632H18.474C19.684 34.7174 23.721 38 28.55 38C34.314 38 39 33.3026 39 27.5C39 26.1211 38.7297 24.7557 38.2045 23.4818C37.6794 22.2079 36.9096 21.0504 35.9393 20.0754C34.9689 19.1004 33.8169 18.3269 32.549 17.7993C31.2812 17.2716 29.9223 17 28.55 17V17Z" fill="#686B6F"/>
</svg>
