<svg width="24" height="24" viewBox="0 0 24 24" fill="none" xmlns="http://www.w3.org/2000/svg">
<path fill-rule="evenodd" clip-rule="evenodd" d="M15.4697 1.96967C15.7626 1.67678 16.2375 1.67678 16.5303 1.96967L19.5303 4.96967C19.8232 5.26256 19.8232 5.73744 19.5303 6.03033L15.5303 10.0303C15.2375 10.3232 14.7626 10.3232 14.4697 10.0303C14.1768 9.73744 14.1768 9.26256 14.4697 8.96967L17.9394 5.5L16 3.56066L4.67724 14.8834L4.03079 17.4692L6.61658 16.8228L11.4697 11.9697C11.7626 11.6768 12.2375 11.6768 12.5303 11.9697C12.8232 12.2626 12.8232 12.7374 12.5303 13.0303L7.53035 18.0303C7.43423 18.1264 7.31379 18.1946 7.18192 18.2276L3.18192 19.2276C2.92634 19.2915 2.65597 19.2166 2.46969 19.0303C2.2834 18.844 2.20851 18.5737 2.27241 18.3181L3.27241 14.3181C3.30538 14.1862 3.37357 14.0658 3.46969 13.9697L15.4697 1.96967Z" fill="black"/>
<path fill-rule="evenodd" clip-rule="evenodd" d="M1.25 21.5C1.25 21.0858 1.58579 20.75 2 20.75H22C22.4142 20.75 22.75 21.0858 22.75 21.5C22.75 21.9142 22.4142 22.25 22 22.25H2C1.58579 22.25 1.25 21.9142 1.25 21.5Z" fill="black"/>
</svg>
