<svg width="56" height="56" viewBox="0 0 56 56" fill="none" xmlns="http://www.w3.org/2000/svg">
<path d="M28 17C29.4587 17 30.8576 17.5795 31.8891 18.6109C32.9205 19.6424 33.5 21.0413 33.5 22.5C33.5 23.9587 32.9205 25.3576 31.8891 26.3891C30.8576 27.4205 29.4587 28 28 28C26.5413 28 25.1424 27.4205 24.1109 26.3891C23.0795 25.3576 22.5 23.9587 22.5 22.5C22.5 21.0413 23.0795 19.6424 24.1109 18.6109C25.1424 17.5795 26.5413 17 28 17V17ZM28 30.75C34.0775 30.75 39 33.2112 39 36.25V39H17V36.25C17 33.2112 21.9225 30.75 28 30.75Z" fill="#686B6F"/>
</svg>
