<svg width="30" height="30" viewBox="0 0 30 30" fill="none" xmlns="http://www.w3.org/2000/svg">
<path d="M15 30C23.2843 30 30 23.2843 30 15C30 6.71573 23.2843 0 15 0C6.71573 0 0 6.71573 0 15C0 23.2843 6.71573 30 15 30Z" fill="#F2F2F2"/>
<mask id="mask0_1658_6345" style="mask-type:alpha" maskUnits="userSpaceOnUse" x="0" y="0" width="30" height="30">
<path d="M15 30C23.2843 30 30 23.2843 30 15C30 6.71573 23.2843 0 15 0C6.71573 0 0 6.71573 0 15C0 23.2843 6.71573 30 15 30Z" fill="white"/>
</mask>
<g mask="url(#mask0_1658_6345)">
<path d="M14.9999 30.0761H26.1539V26.5231C26.1539 25.3501 25.3519 23.8661 24.3719 23.2261L18.9369 19.9261C18.5119 19.6731 18.0239 19.3061 18.0239 18.2331C18.0239 17.5301 18.6169 16.9731 18.7959 16.7531C19.6682 15.8066 20.1517 14.5661 20.1499 13.2791V10.6461C20.1499 7.79205 17.8459 6.15405 14.9999 6.15405C12.1529 6.15405 9.84795 7.79205 9.84795 10.6461V13.2791C9.84795 14.6231 10.3649 15.8381 11.2039 16.7531C11.3819 16.9731 11.9749 17.5301 11.9749 18.2331C11.9749 19.3071 11.4869 19.6731 11.0619 19.9251L5.62595 23.2261C4.64695 23.8661 3.84595 25.3501 3.84595 26.5231V30.0761H14.9999Z" fill="black" fill-opacity="0.1"/>
</g>
</svg>
